<svg width="80" height="80" viewBox="0 0 80 80" fill="none" xmlns="http://www.w3.org/2000/svg">
<path d="M52.8467 29.5133L42.36 40L52.8467 50.4867C53.4967 51.1367 53.4967 52.1933 52.8467 52.8433C52.52 53.17 52.0933 53.33 51.6667 53.33C51.24 53.33 50.8133 53.1667 50.4867 52.8433L40 42.3567L29.5133 52.8433C29.1867 53.17 28.76 53.33 28.3333 53.33C27.9067 53.33 27.48 53.1667 27.1533 52.8433C26.5033 52.1933 26.5033 51.1367 27.1533 50.4867L37.64 40L27.1533 29.5133C26.5033 28.8633 26.5033 27.8067 27.1533 27.1567C27.8033 26.5067 28.86 26.5067 29.51 27.1567L39.9967 37.6433L50.4833 27.1567C51.1333 26.5067 52.19 26.5067 52.84 27.1567C53.49 27.8067 53.49 28.8633 52.84 29.5133H52.8467ZM80 40C80 62.0567 62.0567 80 40 80C17.9433 80 0 62.0567 0 40C0 17.9433 17.9433 0 40 0C62.0567 0 80 17.9433 80 40ZM76.6667 40C76.6667 19.7833 60.2167 3.33333 40 3.33333C19.7833 3.33333 3.33333 19.7833 3.33333 40C3.33333 60.2167 19.7833 76.6667 40 76.6667C60.2167 76.6667 76.6667 60.2167 76.6667 40Z" fill="#090D6D"/>
</svg>
