<svg width="263" height="43" viewBox="0 0 263 43" fill="none" xmlns="http://www.w3.org/2000/svg">
<path d="M6.79535 16.781V23.661H17.5179V29.7802H6.79535V41.7541H0V10.4854H18.6762V16.781H6.78432H6.79535Z" fill="#7176F8"/>
<path d="M43.1769 35.4584V41.7541H23.916V10.4854H42.6805V16.7369H30.7003V22.9002H41.5111V29.0195H30.7003V35.4474H43.1658L43.1769 35.4584Z" fill="#7176F8"/>
<path d="M80.3527 41.7541L77.2639 21.3456L67.9203 41.71H66.2656L56.922 21.3456L53.8442 41.7541H46.9165L51.8365 10.4854H58.6319L67.0819 29.6479L75.5761 10.4854H82.3715L87.2474 41.7541H80.3638H80.3527Z" fill="#7176F8"/>
<path d="M96.9 41.2468C94.9805 40.3538 93.4913 39.0858 92.4323 37.454C91.3733 35.8222 90.8438 33.9368 90.8438 31.8199H98.7753C98.8084 32.713 99.0511 33.4627 99.4703 34.0802C99.9005 34.6976 100.485 35.1386 101.224 35.4143C101.974 35.6899 102.824 35.8333 103.795 35.8333C104.578 35.8333 105.284 35.723 105.913 35.5025C106.541 35.282 107.071 34.9402 107.479 34.4661C107.887 33.992 108.097 33.4517 108.097 32.8233C108.097 31.8971 107.612 31.2025 106.641 30.7615C105.67 30.3094 104.225 29.9235 102.283 29.5927C101.059 29.4053 100.044 29.2179 99.2387 29.0304C98.4334 28.843 97.4847 28.5233 96.3926 28.0492C95.3004 27.5751 94.4179 27.0568 93.7671 26.4615C93.1162 25.8661 92.5426 25.0502 92.0682 24.0027C91.5829 22.9663 91.3402 21.7535 91.3402 20.3753C91.3402 17.5417 92.4543 15.2374 94.6937 13.4512C96.9221 11.665 99.8564 10.772 103.486 10.772C107.115 10.772 110.038 11.6981 112.256 13.5394C114.473 15.3807 115.576 17.8063 115.576 20.8274H107.81C107.81 18.4458 106.299 17.2551 103.287 17.2551C102.019 17.2551 101.037 17.5197 100.331 18.0379C99.6248 18.5561 99.2718 19.2617 99.2718 20.1548C99.2718 20.5297 99.371 20.8715 99.5806 21.1912C99.7902 21.5109 100.033 21.7535 100.309 21.9409C100.584 22.1284 101.026 22.3048 101.621 22.4702C102.217 22.6356 102.725 22.7568 103.133 22.834L104.975 23.1648C105.681 23.3081 106.188 23.4184 106.486 23.4735C106.784 23.5286 107.292 23.6279 107.998 23.7822C108.704 23.9256 109.233 24.0689 109.586 24.2012C109.939 24.3335 110.425 24.5099 111.042 24.7304C111.66 24.9509 112.123 25.1825 112.443 25.4251C112.763 25.6676 113.149 25.9543 113.613 26.2961C114.076 26.6379 114.44 27.0017 114.705 27.4097C114.969 27.8176 115.223 28.2697 115.488 28.7438C115.753 29.2179 115.929 29.7912 116.017 30.4197C116.106 31.0481 116.161 31.7207 116.161 32.4263C116.161 35.5135 115.003 37.9833 112.697 39.8245C110.391 41.6658 107.336 42.592 103.541 42.592C101.048 42.592 98.8415 42.1509 96.9221 41.2579L96.9 41.2468Z" fill="white"/>
<path d="M151.208 28.9643H128.417C128.748 31.0151 129.564 32.5807 130.844 33.6833C132.123 34.7859 133.778 35.3261 135.786 35.3261C137.165 35.3261 138.411 35.0174 139.525 34.4C140.64 33.7825 141.522 32.9446 142.151 31.8641H150.755C149.641 35.1387 147.744 37.7407 145.063 39.6812C142.383 41.6107 139.294 42.581 135.797 42.581C131.329 42.581 127.601 41.0594 124.622 38.0053C121.644 34.9512 120.154 31.1805 120.154 26.671C120.154 24.8848 120.408 23.1759 120.904 21.533C121.412 19.9012 122.129 18.4238 123.078 17.1228C124.026 15.8218 125.14 14.6971 126.398 13.7489C127.656 12.8007 129.101 12.062 130.7 11.5438C132.3 11.0256 133.999 10.761 135.786 10.761C138.797 10.761 141.511 11.4666 143.916 12.8779C146.321 14.2892 148.163 16.2076 149.443 18.6223C150.722 21.0369 151.373 23.683 151.373 26.5497C151.373 27.3325 151.318 28.1264 151.208 28.9533V28.9643ZM131.186 19.1956C129.939 20.1989 129.09 21.5992 128.648 23.3853H143.221C142.846 22.1615 142.305 21.1251 141.599 20.2871C140.893 19.4492 140.044 18.8097 139.062 18.3577C138.08 17.9056 136.988 17.6851 135.797 17.6851C133.977 17.6851 132.432 18.1923 131.186 19.1956Z" fill="white"/>
<path d="M182.515 14.3113C184.511 16.6047 185.504 19.6588 185.504 23.4957V41.7542H177.352V24.7857C177.352 20.2872 175.598 18.027 172.101 18.027C170.722 18.027 169.52 18.3467 168.494 18.9752C167.468 19.6036 166.685 20.5188 166.144 21.7095C165.604 22.9003 165.339 24.3006 165.339 25.8993V41.7542H157.187V11.6101H162.768L164.39 15.3477C164.953 14.6421 165.592 14.0136 166.321 13.4734C167.049 12.9331 167.843 12.4701 168.692 12.0731C169.542 11.6762 170.446 11.3895 171.406 11.1801C172.355 10.9706 173.348 10.8713 174.396 10.8713C177.826 10.8713 180.529 12.018 182.526 14.3003L182.515 14.3113Z" fill="white"/>
<path d="M192.995 0H201.147V7.58564H192.995V0ZM192.995 11.61H201.147V41.7541H192.995V11.61Z" fill="white"/>
<path d="M262.989 11.4446V19.1515H259.47C257.164 19.1515 255.51 19.6918 254.528 20.7723C253.546 21.8528 253.05 23.6169 253.05 26.0756V41.7651H244.897V11.621H250.148L251.605 15.3036C253.656 12.7346 256.558 11.4556 260.319 11.4556H263L262.989 11.4446Z" fill="white"/>
<path d="M214.349 40.8547C211.812 39.4245 209.838 37.4334 208.413 34.9096C207 32.3717 206.288 29.5533 206.288 26.4686C206.288 21.7152 207.85 17.7612 211.004 14.6203C214.157 11.4795 218.091 9.9231 222.862 9.9231C227.633 9.9231 231.526 11.4935 234.666 14.6203C237.805 17.7471 239.382 21.7012 239.382 26.4686C239.382 31.2359 237.805 35.1199 234.638 38.2747C231.472 41.4296 227.551 43 222.862 43C219.723 43 216.885 42.2849 214.349 40.8547ZM228.702 32.6381C230.21 31.0396 230.978 28.9784 230.978 26.4545C230.978 23.9307 230.224 21.8835 228.702 20.271C227.181 18.6585 225.234 17.8593 222.835 17.8593C220.436 17.8593 218.475 18.6585 216.953 20.271C215.445 21.8835 214.678 23.9447 214.678 26.4545C214.678 27.6884 214.883 28.8522 215.281 29.9319C215.678 31.0116 216.241 31.923 216.953 32.6661C217.666 33.4093 218.53 33.9841 219.531 34.4048C220.532 34.8254 221.642 35.0498 222.848 35.0498C225.234 35.0498 227.181 34.2505 228.689 32.6381H228.702Z" fill="#7176F8"/>
</svg>
