<svg width="168" height="28" viewBox="0 0 168 28" fill="none" xmlns="http://www.w3.org/2000/svg">
<path d="M4.34076 10.7251V15.1222H11.1901V19.0331H4.34076V26.6858H0V6.70142H11.93V10.7251H4.33371H4.34076Z" fill="#7176F8"/>
<path d="M27.5809 22.6622V26.6858H15.2773V6.70142H27.2638V10.6969H19.6111V14.636H26.5168V18.5469H19.6111V22.6551H27.5738L27.5809 22.6622Z" fill="#7176F8"/>
<path d="M51.3277 26.6858L49.3547 13.6424L43.3861 26.6576H42.3291L36.3606 13.6424L34.3946 26.6858H29.9692L33.1121 6.70142H37.4528L42.8506 18.9486L48.2765 6.70142H52.6173L55.7319 26.6858H51.3348H51.3277Z" fill="#7176F8"/>
<path d="M61.8979 26.3617C60.6718 25.7909 59.7205 24.9805 59.044 23.9376C58.3675 22.8947 58.0293 21.6897 58.0293 20.3368H63.0959C63.117 20.9075 63.272 21.3867 63.5398 21.7813C63.8146 22.1759 64.1881 22.4578 64.6602 22.634C65.1394 22.8101 65.682 22.9018 66.3021 22.9018C66.8024 22.9018 67.2534 22.8313 67.6551 22.6904C68.0567 22.5494 68.395 22.331 68.6557 22.028C68.9164 21.725 69.0503 21.3797 69.0503 20.978C69.0503 20.3861 68.7403 19.9422 68.1201 19.6603C67.5 19.3714 66.5769 19.1247 65.3367 18.9133C64.5545 18.7935 63.9062 18.6737 63.3918 18.554C62.8774 18.4342 62.2714 18.2298 61.5738 17.9268C60.8762 17.6238 60.3124 17.2926 59.8967 16.9121C59.4809 16.5316 59.1145 16.0101 58.8115 15.3407C58.5014 14.6783 58.3464 13.9031 58.3464 13.0223C58.3464 11.2113 59.0581 9.73855 60.4886 8.59699C61.912 7.45543 63.7864 6.88464 66.1048 6.88464C68.4232 6.88464 70.2905 7.47657 71.7069 8.65336C73.1233 9.83016 73.828 11.3804 73.828 13.3112H68.8671C68.8671 11.7891 67.9017 11.0281 65.978 11.0281C65.1676 11.0281 64.5404 11.1972 64.0894 11.5284C63.6385 11.8596 63.413 12.3106 63.413 12.8814C63.413 13.121 63.4764 13.3394 63.6103 13.5438C63.7442 13.7481 63.8992 13.9031 64.0754 14.0229C64.2515 14.1427 64.5334 14.2555 64.9139 14.3612C65.2944 14.4669 65.6186 14.5444 65.8793 14.5937L67.0561 14.8051C67.5071 14.8967 67.8312 14.9672 68.0215 15.0024C68.2118 15.0377 68.5359 15.1011 68.9869 15.1997C69.4379 15.2913 69.7761 15.3829 70.0016 15.4675C70.2271 15.5521 70.5372 15.6648 70.9318 15.8057C71.3264 15.9467 71.6224 16.0947 71.8267 16.2497C72.0311 16.4047 72.2777 16.5879 72.5737 16.8064C72.8696 17.0248 73.1022 17.2574 73.2713 17.5181C73.4404 17.7788 73.6025 18.0677 73.7716 18.3707C73.9407 18.6737 74.0535 19.0402 74.1098 19.4418C74.1662 19.8435 74.2014 20.2733 74.2014 20.7243C74.2014 22.6974 73.4615 24.2759 71.9888 25.4527C70.516 26.6295 68.5641 27.2214 66.14 27.2214C64.5475 27.2214 63.1381 26.9395 61.912 26.3687L61.8979 26.3617Z" fill="#090D6D"/>
<path d="M96.5889 18.5116H82.0304C82.2418 19.8223 82.7633 20.823 83.5807 21.5276C84.3981 22.2323 85.4551 22.5776 86.7376 22.5776C87.6184 22.5776 88.4147 22.3803 89.1264 21.9857C89.8381 21.591 90.4019 21.0555 90.8035 20.3649H96.2999C95.5882 22.4578 94.3762 24.1208 92.6639 25.361C90.9515 26.5942 88.9784 27.2143 86.7446 27.2143C83.8907 27.2143 81.509 26.2419 79.6064 24.2899C77.7038 22.338 76.7524 19.928 76.7524 17.0459C76.7524 15.9044 76.9145 14.8121 77.2316 13.7622C77.5558 12.7193 78.0138 11.775 78.6198 10.9435C79.2258 10.112 79.9375 9.39323 80.7409 8.78721C81.5442 8.1812 82.4673 7.70907 83.4891 7.37788C84.5108 7.04668 85.596 6.87756 86.7376 6.87756C88.6613 6.87756 90.3948 7.32855 91.931 8.23053C93.4672 9.1325 94.644 10.3586 95.4614 11.9018C96.2788 13.4451 96.6946 15.1363 96.6946 16.9684C96.6946 17.4687 96.6593 17.9761 96.5889 18.5046V18.5116ZM83.7991 12.2683C83.0029 12.9095 82.4603 13.8045 82.1784 14.946H91.4871C91.2475 14.1638 90.9022 13.5014 90.4512 12.9659C90.0002 12.4304 89.4576 12.0216 88.8305 11.7327C88.2033 11.4438 87.5057 11.3029 86.7446 11.3029C85.5819 11.3029 84.5954 11.627 83.7991 12.2683Z" fill="#090D6D"/>
<path d="M116.587 9.14662C117.863 10.6123 118.497 12.5643 118.497 15.0165V26.6858H113.29V15.841C113.29 12.9659 112.169 11.5214 109.935 11.5214C109.054 11.5214 108.286 11.7257 107.631 12.1274C106.976 12.529 106.475 13.1139 106.13 13.875C105.785 14.636 105.616 15.5309 105.616 16.5527V26.6858H100.408V7.42019H103.974L105.01 9.80901C105.369 9.35803 105.778 8.95636 106.243 8.61108C106.708 8.26579 107.215 7.96983 107.758 7.71615C108.3 7.46247 108.878 7.27925 109.491 7.14537C110.097 7.01148 110.732 6.94806 111.401 6.94806C113.593 6.94806 115.319 7.68091 116.594 9.13958L116.587 9.14662Z" fill="#090D6D"/>
<path d="M123.282 0H128.489V4.84812H123.282V0ZM123.282 7.42016H128.489V26.6858H123.282V7.42016Z" fill="#090D6D"/>
<path d="M167.993 7.31439V12.24H165.745C164.272 12.24 163.215 12.5853 162.588 13.2759C161.961 13.9665 161.644 15.0939 161.644 16.6653V26.6928H156.437V7.42714H159.791L160.721 9.78073C162.032 8.13885 163.885 7.32144 166.288 7.32144H168L167.993 7.31439Z" fill="#090D6D"/>
<path d="M136.922 26.1109C135.302 25.1969 134.041 23.9243 133.13 22.3113C132.228 20.6893 131.773 18.888 131.773 16.9165C131.773 13.8786 132.771 11.3514 134.785 9.34407C136.8 7.3367 139.313 6.34198 142.36 6.34198C145.408 6.34198 147.895 7.34566 149.9 9.34407C151.906 11.3425 152.913 13.8696 152.913 16.9165C152.913 19.9634 151.906 22.4457 149.883 24.462C147.86 26.4783 145.355 27.482 142.36 27.482C140.355 27.482 138.542 27.025 136.922 26.1109ZM146.091 20.8595C147.054 19.8379 147.545 18.5206 147.545 16.9075C147.545 15.2945 147.063 13.9861 146.091 12.9555C145.119 11.925 143.875 11.4142 142.343 11.4142C140.81 11.4142 139.558 11.925 138.586 12.9555C137.623 13.9861 137.132 15.3034 137.132 16.9075C137.132 17.6961 137.264 18.4399 137.518 19.13C137.772 19.82 138.131 20.4025 138.586 20.8774C139.041 21.3524 139.593 21.7198 140.232 21.9887C140.872 22.2575 141.581 22.4009 142.352 22.4009C143.875 22.4009 145.119 21.8901 146.082 20.8595H146.091Z" fill="#7176F8"/>
</svg>
