<svg width="163" height="73" viewBox="0 0 163 73" fill="none" xmlns="http://www.w3.org/2000/svg">
<path d="M10.6221 19.1552H6.58627V29.0841H0.271484V0H12.0377C13.9451 0 15.682 0.411616 17.228 1.22481C18.7741 2.038 19.9889 3.18249 20.8623 4.65828C21.7357 6.12403 22.1674 7.79057 22.1674 9.64786C22.1674 11.5051 21.6956 13.1817 20.7519 14.6776C19.8082 16.1735 18.5231 17.3079 16.8867 18.081L23.332 29.0942H16.2642L10.6121 19.1652L10.6221 19.1552ZM6.58627 13.3323H11.616C12.891 13.3323 13.905 12.991 14.668 12.2882C15.431 11.5955 15.8125 10.692 15.8125 9.58762C15.8125 8.83467 15.6418 8.18211 15.3105 7.60986C14.9792 7.03762 14.4973 6.59588 13.8548 6.28466C13.2123 5.97344 12.4694 5.80277 11.606 5.80277H6.57623V13.3223L6.58627 13.3323Z" fill="#0F115A"/>
<path d="M48.4503 19.567H31.4937C31.7447 21.093 32.3471 22.2576 33.3008 23.0808C34.2546 23.894 35.4794 24.3056 36.9752 24.3056C37.9993 24.3056 38.9329 24.0747 39.7561 23.6229C40.5794 23.1712 41.242 22.5387 41.7138 21.7355H48.119C47.2857 24.1751 45.8701 26.1127 43.8823 27.5584C41.8845 28.994 39.5855 29.7168 36.9853 29.7168C33.6622 29.7168 30.8914 28.5824 28.6726 26.3135C26.4539 24.0446 25.3496 21.2336 25.3496 17.8804C25.3496 16.5452 25.5404 15.2802 25.9118 14.0554C26.2833 12.8406 26.8254 11.7463 27.5282 10.7725C28.2309 9.79868 29.0642 8.96541 29.9979 8.26265C30.9416 7.55989 32.0057 7.00773 33.2004 6.62623C34.3951 6.2347 35.65 6.04395 36.9853 6.04395C39.2341 6.04395 41.242 6.56599 43.029 7.62013C44.816 8.67427 46.1914 10.0999 47.1451 11.8969C48.0989 13.694 48.5808 15.6617 48.5808 17.8001C48.5808 18.3824 48.5406 18.9747 48.4603 19.5871L48.4503 19.567ZM33.5518 12.2885C32.6282 13.0414 31.9957 14.0755 31.6644 15.4107H42.5069C42.2258 14.4971 41.8243 13.7241 41.3022 13.1016C40.7802 12.4792 40.1477 11.9973 39.4148 11.666C38.6819 11.3347 37.8687 11.164 36.9853 11.164C35.6299 11.164 34.4855 11.5355 33.5518 12.2885Z" fill="#0F115A"/>
<path d="M73.1377 6.646L64.2026 29.084H58.5906L49.4849 6.646H55.9302L61.4619 21.6951L66.8229 6.646H73.1377Z" fill="#0F115A"/>
<path d="M74.2314 19.567H91.1879C90.9369 21.093 90.3346 22.2576 89.3808 23.0808C88.4271 23.894 87.2023 24.3056 85.7064 24.3056C84.6824 24.3056 83.7487 24.0747 82.9255 23.6229C82.1023 23.1712 81.4397 22.5387 80.9678 21.7355H74.5627C75.3959 24.1751 76.8115 26.1127 78.7993 27.5584C80.7971 28.994 83.0962 29.7168 85.6964 29.7168C89.0194 29.7168 91.7903 28.5824 94.009 26.3135C96.2277 24.0446 97.332 21.2336 97.332 17.8804C97.332 16.5452 97.1413 15.2802 96.7698 14.0554C96.3984 12.8406 95.8562 11.7463 95.1535 10.7725C94.4507 9.79868 93.6174 8.96541 92.6838 8.26265C91.7401 7.55989 90.6759 7.00773 89.4812 6.62623C88.2865 6.2347 87.0316 6.04395 85.6964 6.04395C83.4475 6.04395 81.4397 6.56599 79.6527 7.62013C77.8656 8.67427 76.4902 10.0999 75.5365 11.8969C74.5828 13.694 74.1009 15.6617 74.1009 17.8001C74.1009 18.3824 74.141 18.9747 74.2213 19.5871L74.2314 19.567ZM89.1298 12.2885C90.0535 13.0414 90.6859 14.0755 91.0172 15.4107H80.1747C80.4558 14.4971 80.8574 13.7241 81.3794 13.1016C81.9015 12.4792 82.534 11.9973 83.2668 11.666C83.9997 11.3347 84.8129 11.164 85.6964 11.164C87.0517 11.164 88.1962 11.5355 89.1298 12.2885Z" fill="#0F115A"/>
<path d="M115.111 6.51541V12.2479H112.491C110.774 12.2479 109.549 12.6495 108.817 13.4526C108.084 14.2558 107.712 15.5709 107.712 17.3981V29.0739H101.648V6.63588H105.554L106.638 9.37664C108.164 7.46915 110.322 6.50537 113.123 6.50537H115.121L115.111 6.51541Z" fill="#0F115A"/>
<path d="M121.457 28.7127C120.031 28.0501 118.917 27.1064 118.134 25.8816C117.341 24.6668 116.949 23.2613 116.949 21.6851H122.852C122.882 22.3477 123.053 22.9099 123.374 23.3718C123.696 23.8336 124.127 24.1649 124.68 24.3657C125.232 24.5765 125.874 24.6769 126.587 24.6769C127.169 24.6769 127.691 24.5966 128.163 24.4259C128.635 24.2552 129.027 24.0042 129.328 23.6529C129.629 23.3115 129.79 22.8999 129.79 22.4281C129.79 21.7353 129.428 21.2233 128.705 20.892C127.983 20.5607 126.908 20.2696 125.463 20.0186C124.549 19.878 123.796 19.7375 123.194 19.607C122.601 19.4664 121.889 19.2255 121.075 18.8841C120.262 18.5428 119.61 18.1412 119.118 17.6995C118.636 17.2578 118.214 16.6454 117.853 15.8723C117.491 15.0993 117.311 14.1957 117.311 13.1717C117.311 11.0635 118.144 9.34672 119.8 8.02152C121.467 6.69632 123.645 6.02368 126.346 6.02368C129.047 6.02368 131.225 6.70636 132.872 8.08176C134.518 9.45715 135.341 11.2642 135.341 13.503H129.569C129.569 11.7261 128.444 10.8426 126.206 10.8426C125.262 10.8426 124.529 11.0333 124.007 11.4249C123.485 11.8164 123.214 12.3385 123.214 13.0011C123.214 13.2822 123.294 13.5332 123.445 13.7741C123.595 14.015 123.776 14.1957 123.987 14.3363C124.198 14.4769 124.519 14.6074 124.961 14.7278C125.402 14.8483 125.774 14.9387 126.085 14.9989L127.46 15.2499C127.983 15.3603 128.364 15.4406 128.585 15.4808C128.806 15.521 129.177 15.6013 129.709 15.7117C130.231 15.8221 130.633 15.9225 130.894 16.0229C131.155 16.1233 131.516 16.2538 131.978 16.4145C132.44 16.5851 132.781 16.7558 133.022 16.9365C133.253 17.1172 133.544 17.328 133.896 17.579C134.247 17.83 134.508 18.1011 134.709 18.4123C134.9 18.7135 135.1 19.0448 135.291 19.4062C135.482 19.7676 135.612 20.1792 135.683 20.6511C135.753 21.1229 135.783 21.6249 135.783 22.147C135.783 24.446 134.92 26.2832 133.203 27.6586C131.486 29.034 129.217 29.7167 126.386 29.7167C124.529 29.7167 122.893 29.3854 121.457 28.7228V28.7127Z" fill="#0F115A"/>
<path d="M144.668 28.1706C142.811 27.1466 141.365 25.721 140.321 23.9139C139.287 22.0968 138.765 20.0788 138.765 17.8702C138.765 14.4668 139.909 11.6357 142.218 9.38688C144.527 7.13806 147.409 6.02368 150.902 6.02368C154.396 6.02368 157.247 7.1481 159.546 9.38688C161.845 11.6257 163 14.4568 163 17.8702C163 21.2836 161.845 24.0645 159.526 26.3233C157.207 28.5822 154.336 29.7066 150.902 29.7066C148.603 29.7066 146.525 29.1946 144.668 28.1706ZM155.179 22.2875C156.283 21.143 156.846 19.6672 156.846 17.8601C156.846 16.053 156.293 14.5873 155.179 13.4328C154.065 12.2782 152.639 11.706 150.882 11.706C149.125 11.706 147.69 12.2782 146.575 13.4328C145.471 14.5873 144.909 16.0631 144.909 17.8601C144.909 18.7436 145.059 19.5769 145.35 20.3499C145.642 21.1229 146.053 21.7755 146.575 22.3076C147.097 22.8397 147.73 23.2513 148.463 23.5525C149.196 23.8536 150.009 24.0143 150.892 24.0143C152.639 24.0143 154.065 23.442 155.169 22.2875H155.179Z" fill="#0F115A"/>
<path d="M3.09214 69.4099C1.02402 67.6229 0 65.1733 0 62.0711H6.35494C6.35494 62.7638 6.48545 63.3762 6.74647 63.9183C7.0075 64.4605 7.36892 64.8922 7.83073 65.2235C8.29254 65.5548 8.80455 65.8057 9.38683 65.9764C9.96912 66.1471 10.5815 66.2274 11.214 66.2274C12.489 66.2274 13.5933 65.9262 14.517 65.3138C15.4406 64.7014 15.9124 63.8681 15.9124 62.824C15.9124 62.3823 15.802 61.9908 15.5811 61.6394C15.3603 61.2981 15.0992 61.017 14.8081 60.8061C14.517 60.5953 14.0752 60.3845 13.4829 60.1636C12.8906 59.9427 12.3786 59.7721 11.967 59.6616C11.5553 59.5512 10.9229 59.4006 10.0996 59.1998L8.60376 58.8284C8.27246 58.7481 7.78053 58.6075 7.12797 58.4168C6.47541 58.226 5.97344 58.0453 5.6321 57.8947C5.29076 57.7441 4.83899 57.5232 4.27678 57.2522C3.72462 56.9711 3.29292 56.7 2.99174 56.4189C2.69055 56.1378 2.34922 55.7965 1.97776 55.3748C1.6063 54.9632 1.31516 54.5215 1.12442 54.0697C0.933667 53.6079 0.762997 53.0858 0.622445 52.4935C0.481894 51.9012 0.411611 51.2687 0.411611 50.6061C0.411611 47.8352 1.35532 45.6868 3.23269 44.1608C5.12009 42.6348 7.69017 41.8718 10.963 41.8718C14.2359 41.8718 16.826 42.7051 18.6733 44.3616C20.5105 46.0281 21.4341 48.3071 21.4341 51.2185H15.1996C15.1996 50.0238 14.778 49.1203 13.9347 48.4978C13.0914 47.8754 12.0473 47.5642 10.8024 47.5642C9.69806 47.5642 8.73427 47.7951 7.91104 48.2669C7.09785 48.7388 6.68623 49.4215 6.68623 50.3049C6.68623 50.7165 6.78663 51.088 6.99746 51.4093C7.20829 51.7305 7.44923 51.9915 7.7203 52.2024C8.0014 52.4132 8.42305 52.614 9.00534 52.8248C9.58762 53.0356 10.0796 53.1862 10.4811 53.2866L12.2882 53.7284C13.1717 53.9492 13.8343 54.1199 14.2861 54.2504C14.7278 54.3709 15.3703 54.5817 16.1935 54.8728C17.0268 55.164 17.6693 55.4451 18.1311 55.7262C18.593 56.0073 19.125 56.3687 19.7274 56.8305C20.3398 57.2923 20.8016 57.7843 21.1229 58.3264C21.4441 58.8685 21.7152 59.5211 21.9562 60.2841C22.1971 61.0471 22.3075 61.8703 22.3075 62.7538C22.3075 64.7717 21.7955 66.5085 20.7715 67.9441C19.7475 69.3898 18.4223 70.4339 16.8059 71.1066C15.1896 71.7792 13.3323 72.1004 11.2542 72.1004C7.87088 72.1004 5.15021 71.2069 3.09214 69.4199V69.4099Z" fill="#0F115A"/>
<path d="M32.2765 67.7935C29.3249 64.9022 27.8491 61.288 27.8491 56.971C27.8491 52.6541 29.3249 49.0399 32.2765 46.1486C35.2281 43.2572 38.9226 41.8015 43.3499 41.8015C46.2614 41.8015 48.9017 42.4641 51.271 43.7793C53.6403 45.0944 55.4876 46.9116 56.8228 49.2206C58.1581 51.5297 58.8207 54.1199 58.8207 56.971C58.8207 61.3181 57.3549 64.9323 54.4134 67.8136C51.4718 70.6949 47.7874 72.1406 43.36 72.1406C38.9326 72.1406 35.2381 70.6949 32.2865 67.7935H32.2765ZM48.0082 65.0126C49.3937 64.2195 50.4779 63.1252 51.271 61.7096C52.0641 60.2941 52.4557 58.7179 52.4557 56.971C52.4557 54.3407 51.5923 52.1421 49.8555 50.3852C48.1287 48.6283 45.9602 47.7448 43.37 47.7448C40.7799 47.7448 38.6013 48.6283 36.8444 50.3852C35.0875 52.1421 34.204 54.3407 34.204 56.971C34.204 59.6014 35.0875 61.8 36.8444 63.5569C38.6013 65.3138 40.7698 66.1973 43.3499 66.1973C45.0667 66.1973 46.6228 65.8057 48.0082 65.0126Z" fill="#0F115A"/>
<path d="M71.7017 70.1628C69.4026 68.8476 67.6056 67.0305 66.3005 64.7215C64.9953 62.4124 64.3428 59.8423 64.3428 57.0112C64.3428 52.6943 65.7784 49.07 68.6396 46.1687C71.5109 43.2572 75.0749 41.8015 79.3416 41.8015C82.8855 41.8015 85.9475 42.8657 88.5277 45.0041C91.1078 47.1324 92.7442 49.9334 93.4269 53.397H87.1121C86.7206 52.2626 86.1584 51.2687 85.4054 50.4254C84.6525 49.582 83.759 48.9295 82.7249 48.4677C81.6908 48.0059 80.5564 47.785 79.3416 47.785C76.8719 47.785 74.8139 48.6685 73.1674 50.4254C71.521 52.1823 70.6977 54.3708 70.6977 56.9911C70.6977 59.6114 71.521 61.79 73.1674 63.5368C74.8139 65.2837 76.8719 66.1571 79.3416 66.1571C81.2491 66.1571 82.9056 65.615 84.2911 64.5407C85.6765 63.4665 86.6302 61.9907 87.1623 60.1335H93.5173C92.8547 63.7376 91.2283 66.639 88.6381 68.8376C86.0479 71.0362 82.9558 72.1406 79.3517 72.1406C76.5507 72.1406 74.0007 71.478 71.7017 70.1628Z" fill="#0F115A"/>
<path d="M99.0586 42.4241H105.373V71.5182H99.0586V42.4241Z" fill="#0F115A"/>
<path d="M131.154 65.9865H119.559L117.561 71.5182H110.915L122.3 42.4241H128.243L140.009 71.5182H133.192L131.154 65.9865ZM121.557 60.505H129.167L125.342 50.1143L121.557 60.505Z" fill="#0F115A"/>
<path d="M163 65.6552V71.5182H145.541V42.4241H151.856V65.6552H162.989H163Z" fill="#0F115A"/>
</svg>
