<svg width="254" height="112" viewBox="0 0 254 112" fill="none" xmlns="http://www.w3.org/2000/svg">
<path d="M16.5525 29.7388H10.2636V45.1537H0.42334V0H18.7584C21.7308 0 24.4372 0.639043 26.8464 1.90154C29.2556 3.16403 31.1486 4.94088 32.5096 7.23207C33.8707 9.50768 34.5434 12.095 34.5434 14.9785C34.5434 17.862 33.8081 20.4649 32.3375 22.7873C30.867 25.1096 28.8645 26.8709 26.3145 28.071L36.3581 45.1693H25.3446L16.5369 29.7544L16.5525 29.7388ZM10.2636 20.6987H18.1013C20.0881 20.6987 21.6682 20.1688 22.8571 19.0777C24.0461 18.0023 24.6406 16.5995 24.6406 14.885C24.6406 13.716 24.3746 12.7029 23.8584 11.8145C23.3421 10.926 22.5912 10.2402 21.59 9.75707C20.5887 9.27389 19.4311 9.00892 18.0857 9.00892H10.2479V20.6831L10.2636 20.6987Z" fill="white"/>
<path d="M75.4993 30.378H49.0762C49.4673 32.7471 50.406 34.5552 51.8922 35.8332C53.3784 37.0957 55.287 37.7348 57.618 37.7348C59.2137 37.7348 60.6686 37.3763 61.9514 36.6749C63.2342 35.9735 64.2667 34.9916 65.002 33.7447H74.983C73.6845 37.5322 71.4787 40.5403 68.3812 42.7848C65.268 45.0136 61.6854 46.1358 57.6336 46.1358C52.4554 46.1358 48.1376 44.3746 44.6802 40.8521C41.2228 37.3295 39.502 32.9654 39.502 27.7595C39.502 25.6865 39.7992 23.7226 40.378 21.8211C40.9569 19.9351 41.8016 18.2362 42.8967 16.7244C43.9918 15.2125 45.2903 13.9188 46.7452 12.8278C48.2158 11.7367 49.8741 10.8795 51.7357 10.2872C53.5974 9.67932 55.5529 9.38318 57.6336 9.38318C61.1379 9.38318 64.2667 10.1937 67.0514 11.8302C69.8361 13.4668 71.9794 15.6801 73.4655 18.47C74.9518 21.26 75.7027 24.3149 75.7027 27.6348C75.7027 28.5388 75.6401 29.4584 75.5149 30.4092L75.4993 30.378ZM52.2833 19.0779C50.844 20.2469 49.8584 21.8523 49.3422 23.9253H66.2379C65.7999 22.5069 65.1741 21.3067 64.3606 20.3404C63.5471 19.374 62.5615 18.6259 61.4195 18.1115C60.2775 17.5972 59.0103 17.3322 57.6336 17.3322C55.5216 17.3322 53.7382 17.9089 52.2833 19.0779Z" fill="white"/>
<path d="M113.968 10.3181L100.045 45.1536H91.2997L77.1104 10.3181H87.154L95.7739 33.6821L104.128 10.3181H113.968Z" fill="white"/>
<path d="M115.674 30.378H142.097C141.706 32.7471 140.767 34.5552 139.281 35.8332C137.794 37.0957 135.886 37.7348 133.555 37.7348C131.959 37.7348 130.504 37.3763 129.221 36.6749C127.939 35.9735 126.906 34.9916 126.171 33.7447H116.19C117.488 37.5322 119.694 40.5403 122.792 42.7848C125.905 45.0136 129.487 46.1358 133.539 46.1358C138.717 46.1358 143.035 44.3746 146.493 40.8521C149.95 37.3295 151.671 32.9654 151.671 27.7595C151.671 25.6865 151.374 23.7226 150.795 21.8211C150.216 19.9351 149.371 18.2362 148.276 16.7244C147.181 15.2125 145.883 13.9188 144.428 12.8278C142.957 11.7367 141.299 10.8795 139.437 10.2872C137.575 9.67932 135.62 9.38318 133.539 9.38318C130.035 9.38318 126.906 10.1937 124.121 11.8302C121.337 13.4668 119.193 15.6801 117.707 18.47C116.221 21.26 115.47 24.3149 115.47 27.6348C115.47 28.5388 115.533 29.4584 115.658 30.4092L115.674 30.378ZM138.89 19.0779C140.329 20.2469 141.314 21.8523 141.831 23.9253H124.935C125.373 22.5069 125.999 21.3067 126.812 20.3404C127.626 19.374 128.611 18.6259 129.753 18.1115C130.895 17.5972 132.163 17.3322 133.539 17.3322C135.651 17.3322 137.435 17.9089 138.89 19.0779Z" fill="white"/>
<path d="M179.376 10.1156V19.0154H175.293C172.618 19.0154 170.709 19.6388 169.567 20.8857C168.425 22.1327 167.846 24.1745 167.846 27.0112V45.1381H158.397V10.3026H164.483L166.172 14.5577C168.55 11.5963 171.914 10.1 176.278 10.1H179.392L179.376 10.1156Z" fill="white"/>
<path d="M189.264 44.577C187.043 43.5483 185.306 42.0832 184.086 40.1816C182.85 38.2957 182.24 36.1136 182.24 33.6665H191.439C191.485 34.6952 191.751 35.5681 192.252 36.285C192.753 37.002 193.425 37.5164 194.286 37.8281C195.146 38.1554 196.147 38.3113 197.258 38.3113C198.166 38.3113 198.979 38.1866 199.714 37.9216C200.45 37.6566 201.06 37.267 201.529 36.7215C201.998 36.1915 202.249 35.5525 202.249 34.8199C202.249 33.7445 201.685 32.9496 200.559 32.4352C199.433 31.9209 197.759 31.4689 195.506 31.0792C194.082 30.861 192.909 30.6428 191.97 30.4402C191.047 30.2219 189.937 29.8479 188.67 29.3179C187.402 28.788 186.385 28.1646 185.619 27.4788C184.868 26.793 184.211 25.8422 183.648 24.642C183.085 23.4419 182.803 22.0391 182.803 20.4493C182.803 17.1762 184.101 14.5109 186.683 12.4535C189.28 10.3961 192.674 9.35181 196.883 9.35181C201.091 9.35181 204.486 10.4117 207.051 12.547C209.617 14.6823 210.9 17.4879 210.9 20.9636H201.905C201.905 18.2049 200.152 16.8333 196.664 16.8333C195.193 16.8333 194.051 17.1294 193.238 17.7373C192.424 18.3451 192.002 19.1556 192.002 20.1843C192.002 20.6208 192.127 21.0104 192.362 21.3845C192.596 21.7586 192.878 22.0391 193.206 22.2573C193.535 22.4755 194.035 22.6782 194.724 22.8652C195.412 23.0522 195.991 23.1925 196.476 23.286L198.619 23.6757C199.433 23.8471 200.027 23.9718 200.371 24.0342C200.716 24.0965 201.294 24.2212 202.124 24.3927C202.937 24.5641 203.563 24.72 203.97 24.8758C204.376 25.0317 204.939 25.2343 205.659 25.4837C206.379 25.7487 206.911 26.0136 207.286 26.2942C207.646 26.5747 208.1 26.9021 208.647 27.2917C209.195 27.6814 209.601 28.1022 209.914 28.5854C210.212 29.053 210.524 29.5673 210.822 30.1284C211.119 30.6895 211.322 31.3286 211.432 32.0611C211.541 32.7937 211.588 33.573 211.588 34.3835C211.588 37.9528 210.243 40.8051 207.568 42.9404C204.893 45.0758 201.357 46.1356 196.945 46.1356C194.051 46.1356 191.501 45.6213 189.264 44.5926V44.577Z" fill="white"/>
<path d="M225.434 43.7353C222.539 42.1455 220.287 39.9323 218.66 37.1267C217.048 34.3056 216.235 31.1727 216.235 27.7437C216.235 22.4599 218.018 18.0646 221.616 14.5732C225.215 11.0819 229.705 9.35181 235.149 9.35181C240.593 9.35181 245.036 11.0975 248.618 14.5732C252.201 18.049 254 22.4444 254 27.7437C254 33.0431 252.201 37.3605 248.587 40.8674C244.973 44.3744 240.499 46.12 235.149 46.12C231.566 46.12 228.328 45.3251 225.434 43.7353ZM241.813 34.6017C243.534 32.8249 244.41 30.5337 244.41 27.7281C244.41 24.9226 243.55 22.647 241.813 20.8545C240.077 19.0621 237.855 18.1737 235.117 18.1737C232.38 18.1737 230.143 19.0621 228.406 20.8545C226.685 22.647 225.809 24.9382 225.809 27.7281C225.809 29.0997 226.044 30.3934 226.497 31.5936C226.951 32.7937 227.593 33.8068 228.406 34.6329C229.22 35.459 230.205 36.098 231.347 36.5656C232.489 37.0332 233.756 37.2826 235.133 37.2826C237.855 37.2826 240.077 36.3942 241.798 34.6017H241.813Z" fill="white"/>
<path d="M4.81842 107.76C1.59571 104.986 0 101.183 0 96.3668H9.90279C9.90279 97.4423 10.1062 98.3931 10.5129 99.2347C10.9197 100.076 11.4829 100.747 12.2025 101.261C12.9221 101.775 13.72 102.165 14.6273 102.43C15.5347 102.695 16.489 102.82 17.4746 102.82C19.4614 102.82 21.1823 102.352 22.6215 101.401C24.0608 100.45 24.7961 99.1568 24.7961 97.5358C24.7961 96.85 24.624 96.2422 24.2798 95.6966C23.9356 95.1667 23.5289 94.7303 23.0752 94.403C22.6215 94.0757 21.9332 93.7483 21.0102 93.4054C20.0872 93.0625 19.2893 92.7976 18.6479 92.6261C18.0065 92.4547 17.0209 92.2209 15.7381 91.9091L13.4071 91.3325C12.8908 91.2078 12.1243 90.9896 11.1074 90.6934C10.0905 90.3973 9.30831 90.1167 8.7764 89.8829C8.2445 89.6491 7.54051 89.3062 6.66444 88.8854C5.80401 88.449 5.13129 88.0281 4.66197 87.5917C4.19264 87.1553 3.66075 86.6254 3.08191 85.9707C2.50308 85.3317 2.0494 84.6459 1.75216 83.9445C1.45492 83.2275 1.18896 82.4171 0.969945 81.4975C0.750926 80.5779 0.641406 79.5959 0.641406 78.5672C0.641406 74.2654 2.11197 70.9299 5.03744 68.5608C7.97855 66.1917 11.9835 65.0071 17.0835 65.0071C22.1835 65.0071 26.2197 66.3008 29.0982 68.8725C31.9611 71.4598 33.4004 74.9979 33.4004 79.518H23.6853C23.6853 77.6632 23.0283 76.2604 21.7142 75.2941C20.4 74.3277 18.7731 73.8446 16.8332 73.8446C15.1123 73.8446 13.6105 74.203 12.3276 74.9356C11.0605 75.6682 10.419 76.728 10.419 78.0996C10.419 78.7387 10.5755 79.3154 10.904 79.8141C11.2325 80.3129 11.608 80.7181 12.0304 81.0455C12.4684 81.3728 13.1255 81.6845 14.0329 82.0118C14.9402 82.3391 15.7068 82.5729 16.3326 82.7288L19.1485 83.4146C20.5252 83.7575 21.5577 84.0224 22.2617 84.2251C22.9501 84.4121 23.9513 84.7394 25.2341 85.1914C26.5326 85.6434 27.5338 86.0798 28.2534 86.5163C28.9731 86.9527 29.8022 87.5138 30.7409 88.2308C31.6952 88.9477 32.4148 89.7115 32.9154 90.5531C33.416 91.3948 33.8384 92.4079 34.2139 93.5925C34.5894 94.777 34.7614 96.0551 34.7614 97.4267C34.7614 100.56 33.9636 103.256 32.3679 105.485C30.7722 107.729 28.7071 109.35 26.1884 110.395C23.6697 111.439 20.7755 111.938 17.5372 111.938C12.2651 111.938 8.02548 110.55 4.81842 107.776V107.76Z" fill="white"/>
<path d="M50.2956 105.251C45.6962 100.762 43.3965 95.1511 43.3965 88.4489C43.3965 81.7468 45.6962 76.1357 50.2956 71.6468C54.895 67.158 60.652 64.8979 67.5511 64.8979C72.0879 64.8979 76.2024 65.9267 79.8944 67.9685C83.5864 70.0103 86.465 72.8314 88.5457 76.4163C90.6264 80.0011 91.6589 84.0224 91.6589 88.4489C91.6589 95.1978 89.3748 100.809 84.7911 105.282C80.2073 109.756 74.4659 112 67.5668 112C60.6677 112 54.9106 109.756 50.3112 105.251H50.2956ZM74.81 100.934C76.9689 99.7023 78.6585 98.0034 79.8944 95.8057C81.1303 93.608 81.7404 91.161 81.7404 88.4489C81.7404 84.3653 80.395 80.9519 77.6886 78.2243C74.9978 75.4967 71.6186 74.1251 67.5824 74.1251C63.5462 74.1251 60.1514 75.4967 57.4137 78.2243C54.6759 80.9519 53.2992 84.3653 53.2992 88.4489C53.2992 92.5326 54.6759 95.946 57.4137 98.6736C60.1514 101.401 63.5306 102.773 67.5511 102.773C70.2263 102.773 72.6511 102.165 74.81 100.934Z" fill="white"/>
<path d="M111.731 108.929C108.148 106.888 105.348 104.066 103.314 100.482C101.281 96.8968 100.264 92.9067 100.264 88.5113C100.264 81.8092 102.501 76.1825 106.959 71.678C111.434 67.158 116.987 64.8979 123.636 64.8979C129.159 64.8979 133.93 66.5501 137.951 69.87C141.971 73.1743 144.521 77.5229 145.585 82.9002H135.745C135.135 81.1389 134.259 79.5959 133.085 78.2866C131.912 76.9774 130.52 75.9643 128.908 75.2473C127.297 74.5303 125.529 74.1874 123.636 74.1874C119.788 74.1874 116.581 75.559 114.015 78.2866C111.449 81.0143 110.166 84.4121 110.166 88.4801C110.166 92.5482 111.449 95.9304 114.015 98.6424C116.581 101.354 119.788 102.71 123.636 102.71C126.609 102.71 129.19 101.869 131.349 100.201C133.508 98.5333 134.994 96.2421 135.823 93.3587H145.726C144.693 98.9542 142.159 103.459 138.123 106.872C134.086 110.285 129.268 112 123.652 112C119.287 112 115.313 110.971 111.731 108.929Z" fill="white"/>
<path d="M154.362 65.8643H164.202V111.034H154.362V65.8643Z" fill="white"/>
<path d="M204.375 102.445H186.306L183.193 111.034H172.836L190.577 65.8643H199.838L218.173 111.034H207.551L204.375 102.445ZM189.419 93.9353H201.278L195.317 77.8034L189.419 93.9353Z" fill="white"/>
<path d="M253.999 101.931V111.034H226.794V65.8643H236.634V101.931H253.984H253.999Z" fill="white"/>
</svg>
