<svg width="46" height="38" viewBox="0 0 46 38" fill="none" xmlns="http://www.w3.org/2000/svg">
<path d="M45.9571 18.9002C44.2822 13.2079 41.52 8.81828 37.7771 5.80985L41.8567 1.76345C42.2623 1.36026 42.2623 0.704812 41.8567 0.301619C41.4489 -0.0995053 40.784 -0.101573 40.3762 0.301619L36.0709 4.57132C32.4702 2.24728 28.0958 1.03357 23.0209 0.990148H23.0021C11.1524 1.0894 3.42611 7.07319 0.0407746 18.7761C-0.0135915 18.9622 -0.0135915 19.1586 0.0407746 19.3426C1.68012 25.0411 4.37334 29.3728 8.09323 32.3213L4.14542 36.2374C3.73767 36.6406 3.73767 37.2961 4.14542 37.6993C4.35033 37.8998 4.96927 38.2617 5.62376 37.6993L9.81204 33.5454C13.4044 35.8115 17.8122 36.9714 23.0188 37.0107C34.8978 36.9177 42.6157 31.0166 45.9592 19.4729C46.0136 19.2847 46.0136 19.0863 45.9592 18.9002H45.9571ZM2.12969 19.0635C5.27247 8.53708 12.2961 3.15291 23.0084 3.05987C27.5187 3.10122 31.3787 4.10403 34.5737 6.0559L29.2626 11.3222C27.6901 10.1416 25.5845 9.51715 22.9895 9.50061C16.8357 9.53783 13.4127 13.0011 13.4127 19.0201C13.4127 21.615 14.0735 23.6951 15.2277 25.2417L9.55693 30.8657C6.14651 28.2315 3.68539 24.3091 2.12969 19.0635ZM30.4879 18.9829C30.3938 24.0362 28.01 26.4057 23.0021 26.4347C20.9759 26.4244 19.3784 26.0294 18.1886 25.2334L29.2249 14.2872C30.03 15.472 30.4523 17.0372 30.4879 18.9808V18.9829ZM15.5038 19.0015C15.5999 14.0308 18.0527 11.5993 22.9895 11.5683C24.9676 11.5807 26.5589 11.9983 27.757 12.8151L16.7249 23.7571C15.945 22.5785 15.5414 21.0009 15.5038 19.0015ZM23.0146 34.9431C18.3893 34.9079 14.498 33.9527 11.3092 32.0566L16.6977 26.7138C18.2618 27.882 20.3716 28.4879 23.0021 28.5023C29.1517 28.4651 32.4639 25.1879 32.5789 18.9829C32.535 16.4231 31.9035 14.3431 30.7346 12.7902L36.3113 7.26134C39.7448 9.95549 42.2686 13.9357 43.862 19.1896C40.7213 29.7037 33.892 34.8562 23.0146 34.9431Z" fill="#7176F8"/>
</svg>
