<svg width="40" height="44" viewBox="0 0 40 44" fill="none" xmlns="http://www.w3.org/2000/svg">
<path d="M27.0055 19.7345L21.2855 25.4545L27.0055 31.1745C27.36 31.5291 27.36 32.1055 27.0055 32.46C26.8273 32.6382 26.5945 32.7255 26.3618 32.7255C26.1291 32.7255 25.8964 32.6364 25.7182 32.46L19.9982 26.74L14.2782 32.46C14.1 32.6382 13.8673 32.7255 13.6345 32.7255C13.4018 32.7255 13.1691 32.6364 12.9909 32.46C12.6364 32.1055 12.6364 31.5291 12.9909 31.1745L18.7109 25.4545L12.9909 19.7345C12.6364 19.38 12.6364 18.8036 12.9909 18.4491C13.3455 18.0945 13.9218 18.0945 14.2764 18.4491L19.9964 24.1691L25.7164 18.4491C26.0709 18.0945 26.6473 18.0945 27.0018 18.4491C27.3564 18.8036 27.3564 19.38 27.0018 19.7345H27.0055ZM39.9982 8.18182C39.9982 8.68364 39.5909 9.09091 39.0891 9.09091H36.3618C36.3618 9.11818 36.3618 9.14546 36.3582 9.17455L33.8673 36.2055C33.4764 40.4418 29.9727 43.6364 25.72 43.6364H14.3164C10.0673 43.6364 6.56545 40.4473 6.17091 36.2182L3.64 9.17636C3.63818 9.14727 3.63636 9.12 3.63636 9.09091H0.909091C0.407273 9.09091 0 8.68364 0 8.18182C0 7.68 0.407273 7.27273 0.909091 7.27273H10.0509C10.5055 3.18727 13.9782 0 18.1818 0H21.8182C26.0218 0 29.4964 3.18727 29.9491 7.27273H39.0909C39.5927 7.27273 39.9982 7.68 39.9982 8.18182ZM11.8818 7.27273H28.1145C27.6727 4.19273 25.0164 1.81818 21.8164 1.81818H18.18C14.98 1.81818 12.3236 4.19273 11.8818 7.27273ZM34.54 9.09091H5.45636L7.97818 36.0473C8.28364 39.3382 11.0091 41.8182 14.3127 41.8182H25.7164C29.0255 41.8182 31.7491 39.3345 32.0527 36.0382L34.5364 9.09091H34.54Z" fill="white"/>
</svg>
