<svg width="40" height="37" viewBox="0 0 40 37" fill="none" xmlns="http://www.w3.org/2000/svg">
<path d="M32.5 0H7.5C3.365 0 0 3.365 0 7.5V25.8333C0 29.9683 3.365 33.3333 7.5 33.3333H14.1667C14.6267 33.3333 15 32.96 15 32.5C15 32.04 14.6267 31.6667 14.1667 31.6667H7.5C4.28333 31.6667 1.66667 29.05 1.66667 25.8333V7.5C1.66667 4.28333 4.28333 1.66667 7.5 1.66667H32.5C35.7167 1.66667 38.3333 4.28333 38.3333 7.5V10.8333C38.3333 11.2933 38.7067 11.6667 39.1667 11.6667C39.6267 11.6667 40 11.2933 40 10.8333V7.5C40 3.365 36.635 0 32.5 0ZM6.21 10H34.1667C34.6267 10 35 9.62667 35 9.16667C35 8.70667 34.6267 8.33333 34.1667 8.33333H6.21C5.75 8.33333 5.37667 8.70667 5.37667 9.16667C5.37667 9.62667 5.75 10 6.21 10ZM6.21 16.6667H27.5C27.96 16.6667 28.3333 16.2933 28.3333 15.8333C28.3333 15.3733 27.96 15 27.5 15H6.21C5.75 15 5.37667 15.3733 5.37667 15.8333C5.37667 16.2933 5.75 16.6667 6.21 16.6667ZM38.78 16.22C39.5683 17.0067 40 18.0533 40 19.1667C40 20.28 39.5667 21.3267 38.78 22.1133L25.935 34.9583C24.835 36.06 23.37 36.6667 21.81 36.6667H19.1667C18.7067 36.6667 18.3333 36.2933 18.3333 35.8333V33.19C18.3333 31.655 18.9567 30.1517 20.0417 29.065L32.8867 16.22C34.5117 14.595 37.1567 14.595 38.78 16.22ZM38.3333 19.1667C38.3333 18.4983 38.0733 17.8717 37.6017 17.3983C36.6283 16.4233 35.04 16.4233 34.0667 17.3983L21.2217 30.2433C20.445 31.0183 20.0017 32.0933 20.0017 33.19V35H21.8117C22.925 35 23.9717 34.5667 24.7583 33.78L37.6033 20.935C38.075 20.4633 38.3333 19.835 38.3333 19.1667Z" fill="white"/>
<path d="M20.6233 23.0833H6.58333C6.12333 23.0833 5.75 22.71 5.75 22.25C5.75 21.79 6.12333 21.4166 6.58333 21.4166H20.6233C21.0833 21.4166 21.4567 21.79 21.4567 22.25C21.4567 22.71 21.0833 23.0833 20.6233 23.0833Z" fill="white"/>
</svg>
