<svg width="67" height="82" viewBox="0 0 67 82" fill="none" xmlns="http://www.w3.org/2000/svg">
<path d="M53.3311 56.4494C53.3311 57.3881 52.5845 58.1499 51.6645 58.1499H14.9994C14.0794 58.1499 13.3328 57.3881 13.3328 56.4494C13.3328 55.5108 14.0794 54.749 14.9994 54.749H51.6645C52.5845 54.749 53.3311 55.5108 53.3311 56.4494ZM51.6645 64.9516H14.9994C14.0794 64.9516 13.3328 65.7134 13.3328 66.6521C13.3328 67.5907 14.0794 68.3525 14.9994 68.3525H51.6645C52.5845 68.3525 53.3311 67.5907 53.3311 66.6521C53.3311 65.7134 52.5845 64.9516 51.6645 64.9516ZM16.666 27.542C16.666 23.7908 19.6558 20.7403 23.3324 20.7403C27.0089 20.7403 29.9988 23.7908 29.9988 27.542C29.9988 31.2932 27.0089 34.3438 23.3324 34.3438C19.6558 34.3438 16.666 31.2932 16.666 27.542ZM19.9992 27.542C19.9992 29.4159 21.4924 30.9429 23.3324 30.9429C25.1723 30.9429 26.6656 29.4159 26.6656 27.542C26.6656 25.6681 25.1723 24.1411 23.3324 24.1411C21.4924 24.1411 19.9992 25.6681 19.9992 27.542ZM14.6594 47.9132C15.5427 48.0969 16.4426 47.5153 16.6293 46.5937C17.2693 43.4377 20.0892 41.1455 23.3324 41.1455C26.5756 41.1455 29.3921 43.4343 30.0354 46.5937C30.1987 47.3963 30.892 47.9473 31.662 47.9473C31.7753 47.9473 31.8887 47.937 32.0053 47.9132C32.9086 47.7228 33.4853 46.8216 33.2986 45.9033C32.342 41.1761 28.1488 37.748 23.3357 37.748C18.5226 37.748 14.3294 41.1795 13.3728 45.9033C13.1828 46.825 13.7628 47.7228 14.6661 47.9132H14.6594ZM66.6639 34.2961V66.6555C66.6639 75.093 59.9342 81.9594 51.6645 81.9594H14.9994C6.72972 81.9594 0 75.093 0 66.6555V15.639C0 7.20139 6.72972 0.335022 14.9994 0.335022H33.3819C39.165 0.335022 44.6081 2.63401 48.7046 6.81029L60.3175 18.6623C64.4107 22.8352 66.6639 28.3854 66.6639 34.2927V34.2961ZM39.9983 22.4441C39.9983 25.2566 42.2416 27.5454 44.9981 27.5454H62.0674C61.1575 25.1512 59.7942 22.9406 57.9609 21.0701L46.3481 9.2181C44.5115 7.34762 42.3482 5.95667 40.0017 5.03163V22.4407L39.9983 22.4441ZM63.3307 34.2961C63.3307 33.1569 63.204 32.0414 63.0107 30.9463H44.9981C40.4017 30.9463 36.6651 27.1305 36.6651 22.4441V4.06238C35.5885 3.86513 34.4952 3.7359 33.3819 3.7359H14.9994C8.56631 3.7359 3.33319 9.07527 3.33319 15.639V66.6521C3.33319 73.2157 8.56631 78.5551 14.9994 78.5551H51.6645C58.0976 78.5551 63.3307 73.2157 63.3307 66.6521V34.2927V34.2961Z" fill="white"/>
</svg>
