<svg width="80" height="82" viewBox="0 0 80 82" fill="none" xmlns="http://www.w3.org/2000/svg">
<path d="M25 40.8122H18.3333C15.5767 40.8122 13.3333 43.1011 13.3333 45.9137V52.7157C13.3333 55.5284 15.5767 57.8173 18.3333 57.8173H25C27.7567 57.8173 30 55.5284 30 52.7157V45.9137C30 43.1011 27.7567 40.8122 25 40.8122ZM26.6667 52.7157C26.6667 53.6544 25.9167 54.4162 25 54.4162H18.3333C17.4167 54.4162 16.6667 53.6544 16.6667 52.7157V45.9137C16.6667 44.975 17.4167 44.2132 18.3333 44.2132H25C25.9167 44.2132 26.6667 44.975 26.6667 45.9137V52.7157ZM65 6.80203H60V1.70051C60 0.761827 59.2533 0 58.3333 0C57.4133 0 56.6667 0.761827 56.6667 1.70051V6.80203H23.3333V1.70051C23.3333 0.761827 22.5867 0 21.6667 0C20.7467 0 20 0.761827 20 1.70051V6.80203H15C6.73 6.80203 0 13.6687 0 22.1066V66.3198C0 74.7577 6.73 81.6244 15 81.6244H65C73.27 81.6244 80 74.7577 80 66.3198V22.1066C80 13.6687 73.27 6.80203 65 6.80203ZM15 10.203H65C71.4333 10.203 76.6667 15.5426 76.6667 22.1066V27.2081H3.33333V22.1066C3.33333 15.5426 8.56667 10.203 15 10.203ZM65 78.2234H15C8.56667 78.2234 3.33333 72.8838 3.33333 66.3198V30.6091H76.6667V66.3198C76.6667 72.8838 71.4333 78.2234 65 78.2234Z" fill="white"/>
</svg>
