<svg width="48" height="38" viewBox="0 0 48 38" fill="none" xmlns="http://www.w3.org/2000/svg">
<path d="M23.9853 8.97534C17.5661 9.01678 13.9956 12.7226 13.9956 19.0195C13.9956 25.3165 17.5683 28.9852 23.9984 29.0223C30.4153 28.983 33.8681 25.5237 33.988 18.9803C33.8768 12.5721 30.3302 9.01678 23.9853 8.97534ZM23.9984 26.8411C18.7658 26.8106 16.2793 24.3176 16.1768 18.9977C16.2771 13.6801 18.7636 11.187 23.9853 11.1543C29.087 11.1892 31.7175 13.8328 31.8069 18.9759C31.7109 24.3088 29.2244 26.8106 23.9984 26.8411Z" fill="#7176F8"/>
<path d="M47.9406 18.8931C44.3766 6.63942 36.1035 0.106876 24.0134 0H23.9937C11.6332 0.102514 3.57381 6.41695 0.0425324 18.7644C-0.0141775 18.9607 -0.0141775 19.1679 0.0425324 19.3621C3.53455 31.6332 11.5939 37.904 24.0134 38C36.4045 37.904 44.4551 31.6768 47.9428 19.4973C47.9995 19.2988 47.9995 19.0894 47.9428 18.8931H47.9406ZM24.0112 35.8189C12.6343 35.7294 5.50413 30.2504 2.22368 19.0654C5.50195 7.95683 12.8284 2.27712 24.0025 2.18115C35.0849 2.28148 42.4005 8.00482 45.7551 19.1985C42.479 30.2918 35.3597 35.7294 24.0112 35.8189Z" fill="#7176F8"/>
</svg>
