<svg width="88" height="82" viewBox="0 0 88 82" fill="none" xmlns="http://www.w3.org/2000/svg">
<path d="M74.5446 4.04522H56.3628C49.3446 4.04522 43.6355 9.87023 43.6355 17.0309V23.3568L32.2064 4.04151C30.8937 1.72264 28.5373 0.335022 25.9118 0.335022C23.2864 0.335022 20.93 1.72264 19.61 4.04893L0.984575 37.3034C-0.335425 39.6594 -0.328152 42.468 1.00639 44.8166C2.34094 47.1651 4.72639 48.5676 7.38821 48.5676H19.2428C18.5555 50.9199 18.1809 53.4094 18.1809 55.988C18.1809 70.3094 29.6028 81.9594 43.6355 81.9594C57.6682 81.9594 69.09 70.3094 69.09 55.988C69.09 53.4094 68.7191 50.9199 68.0282 48.5676H74.5446C81.5628 48.5676 87.2718 42.7426 87.2718 35.5819V17.0309C87.2718 9.87023 81.5628 4.04522 74.5446 4.04522ZM7.38457 44.8574C6.03548 44.8574 4.82458 44.1488 4.14821 42.9541C3.46821 41.7631 3.46458 40.3384 4.1373 39.1437L22.7628 5.90032C24.0828 3.57774 27.73 3.54805 29.0791 5.92629L43.3337 30.0203C33.33 30.139 24.6937 36.1792 20.6391 44.8574H7.38457ZM43.6355 78.2492C31.6028 78.2492 21.8173 68.265 21.8173 55.988C21.8173 43.711 31.6028 33.7268 43.6355 33.7268C55.6682 33.7268 65.4537 43.711 65.4537 55.988C65.4537 68.265 55.6682 78.2492 43.6355 78.2492ZM83.6355 35.5819C83.6355 40.6946 79.5591 44.8574 74.5446 44.8574H66.6318C63.0391 37.1587 55.8355 31.5378 47.2718 30.2837V17.0309C47.2718 11.9183 51.3482 7.75542 56.3628 7.75542H74.5446C79.5591 7.75542 83.6355 11.9183 83.6355 17.0309V35.5819Z" fill="white"/>
</svg>
