<svg width="80" height="82" viewBox="0 0 80 82" fill="none" xmlns="http://www.w3.org/2000/svg">
<path d="M13.3333 13.9391C17.01 13.9391 20 10.8884 20 7.13705C20 3.38573 17.01 0.335022 13.3333 0.335022C9.65667 0.335022 6.66667 3.38573 6.66667 7.13705C6.66667 10.8884 9.65667 13.9391 13.3333 13.9391ZM13.3333 3.73604C15.1733 3.73604 16.6667 5.26309 16.6667 7.13705C16.6667 9.01101 15.1733 10.5381 13.3333 10.5381C11.4933 10.5381 10 9.01101 10 7.13705C10 5.26309 11.4933 3.73604 13.3333 3.73604ZM30 17.3401C33.6767 17.3401 36.6667 14.2894 36.6667 10.5381C36.6667 6.78675 33.6767 3.73604 30 3.73604C26.3233 3.73604 23.3333 6.78675 23.3333 10.5381C23.3333 14.2894 26.3233 17.3401 30 17.3401ZM30 7.13705C31.84 7.13705 33.3333 8.66411 33.3333 10.5381C33.3333 12.412 31.84 13.9391 30 13.9391C28.16 13.9391 26.6667 12.412 26.6667 10.5381C26.6667 8.66411 28.16 7.13705 30 7.13705ZM46.6667 13.9391C50.3433 13.9391 53.3333 10.8884 53.3333 7.13705C53.3333 3.38573 50.3433 0.335022 46.6667 0.335022C42.99 0.335022 40 3.38573 40 7.13705C40 10.8884 42.99 13.9391 46.6667 13.9391ZM46.6667 3.73604C48.5067 3.73604 50 5.26309 50 7.13705C50 9.01101 48.5067 10.5381 46.6667 10.5381C44.8267 10.5381 43.3333 9.01101 43.3333 7.13705C43.3333 5.26309 44.8267 3.73604 46.6667 3.73604ZM20.2067 28.8967C21.1633 24.1693 25.3567 20.7411 30.17 20.7411C34.9833 20.7411 39.17 24.1727 40.1333 28.8967C40.3233 29.815 39.9033 30.9442 38.5 30.9442C37.73 30.9442 37.0367 30.3932 36.8733 29.5906C36.23 26.4344 33.41 24.1421 30.17 24.1421C26.93 24.1421 24.11 26.431 23.4667 29.5906C23.28 30.5122 22.3867 31.087 21.4967 30.9101C20.5933 30.7197 20.0167 29.8184 20.2033 28.9002L20.2067 28.8967ZM46.6667 17.3401C51.48 17.3401 55.6733 20.7717 56.63 25.4957C56.82 26.4174 56.25 27.5738 54.9967 27.5431C54.2267 27.5227 53.5333 26.9888 53.37 26.1895C52.73 23.0334 49.91 20.7411 46.6667 20.7411C45.7333 20.7411 44.8267 20.9248 43.9733 21.2887C43.1367 21.6526 42.1467 21.2411 41.7933 20.3738C41.4433 19.5065 41.8433 18.5134 42.6933 18.1495C43.9533 17.6122 45.29 17.3401 46.6667 17.3401ZM3.37 25.4957C4.32667 20.7683 8.52 17.3401 13.3333 17.3401C14.71 17.3401 16.0467 17.6122 17.3067 18.1495C18.1567 18.51 18.5567 19.5065 18.2067 20.3738C17.8533 21.2411 16.8633 21.6492 16.0267 21.2887C15.1733 20.9282 14.27 20.7411 13.3333 20.7411C10.09 20.7411 7.27333 23.03 6.63 26.1895C6.46667 26.9922 5.76667 27.6554 5.00333 27.5431C3.65333 27.3459 3.18 26.4174 3.37 25.4957ZM77.27 33.1684C75.6167 31.6312 73.4667 30.8761 71.24 30.951C69.0067 31.0598 66.9467 32.0461 65.4433 33.733L53.0033 47.684C51.9567 43.9156 48.5533 41.1472 44.5267 41.1472H11.6667C5.23333 41.1472 0 46.4868 0 53.0508V70.0558C0 76.6198 5.23333 81.9594 11.6667 81.9594H31.55C40.5733 81.9594 49.19 78.0176 55.1933 71.1408L77.88 45.1604C80.9167 41.6846 80.6433 36.3042 77.27 33.1684ZM75.3933 42.8987L52.7067 68.8791C47.3367 75.0315 39.6233 78.5584 31.55 78.5584H11.6667C7.07 78.5584 3.33333 74.7424 3.33333 70.0558V53.0508C3.33333 48.3642 7.07 44.5482 11.6667 44.5482H44.5233C47.54 44.5482 50 47.0548 50 50.1327C50 52.8943 47.98 55.2716 45.34 55.6559L24.8033 58.1625C23.89 58.2747 23.2367 59.1216 23.3467 60.0534C23.4533 60.9853 24.2867 61.6315 25.2 61.5397L45.7767 59.0263C49.18 58.5298 51.9233 56.0402 52.9267 52.8229L67.9133 36.0219C68.8167 35.0084 70.0567 34.4132 71.4 34.3486C72.7267 34.2874 74.03 34.7567 75.0267 35.6852C77.0567 37.5727 77.22 40.8037 75.3933 42.8987Z" fill="white"/>
</svg>
